# xmcd
#
# Track frame offsets: 
#        150
#        15932
#        32885
#        45942
#        55872
#        72235
#        83805
#        103830
#        115330
#        129290
#        146500
#        158740
#        178152
#        192755
#        205447
#        233965
#        250185
#        267355
#        282197
#        296525
#        305685
#        319822
#        330302
#
# Disc length: 4612 seconds
#
# Revision: 4
# Processed by: cddbd v1.5.2PL0 Copyright (c) Steve Scherf et al.
# Submitted via: ExactAudioCopyFreeDBPlugin 1.0
#
DISCID=48120217
DTITLE=Memphis Slim - Raining the Blues
DYEAR=1960
DGENRE=Blues
TTITLE0=Beer Drinking Woman
TTITLE1=Teasing the Blues
TTITLE2=The I.C. Blues
TTITLE3=Baby Doll
TTITLE4=Just Blues
TTITLE5=Blue and Disgusted
TTITLE6=Blue Brew
TTITLE7=Rack 'em Back Jack
TTITLE8=Motherless Child
TTITLE9=Brenda
TTITLE10=When Your Dough Roller Is Gone
TTITLE11=Hey Slim
TTITLE12=Darling, I miss you so
TTITLE13=Lonesome Traveler
TTITLE14=No Strain
TTITLE15=Don't Think You're Smart
TTITLE16=Raining The Blues
TTITLE17=You're Gonna Need My Help One Day
TTITLE18=Angel Child
TTITLE19=Fast And Free
TTITLE20=My Baby Left ME
TTITLE21=Lucille
TTITLE22=Nice Stuff
EXTD=Fantasy  FCD-24705-2\nOriginally released as two disks:\n  "Just 
EXTD=Blues" Prestige/Bluesville 1018 (tracks 1-12]\n  ""No Strain" (Pr
EXTD=estige Bluesville 1031) (tracks 13-23]\nRecorded: 26-Apr-60 and 1
EXTD=5-Nov-60\nMemphis Slim (Peter Chatman): Piano, Vocals\n"Harpie Br
EXTD=own": Harmonica\nLafayette Thomas: Guitar\nWendell Marshall: Bass
EXTD=\n\nEntry update: Mike Lempriere  mikel@speakeasy.org  31-Dec-96\n
EXTD=YEAR: 1960 ID3G:   0
EXTT0=
EXTT1=
EXTT2=
EXTT3=
EXTT4=
EXTT5=
EXTT6=
EXTT7=
EXTT8=
EXTT9=
EXTT10=
EXTT11=
EXTT12=
EXTT13=
EXTT14=
EXTT15=
EXTT16=
EXTT17=
EXTT18=
EXTT19=
EXTT20=
EXTT21=
EXTT22=
PLAYORDER=
